# xmcd
#
# Track frame offsets:
#	150
#	16787
#	27662
#	41192
#	53222
#	69062
#	79492
#	93800
#	106662
#	118470
#	132135
#	145395
#
# Disc length: 2151 seconds
#
# Revision: 0
# Processed by: cddbd v1.5.1PL0 Copyright (c) Steve Scherf et al.
# Submitted via: EasyCDDAExtractor 8.0.0.2
#
DISCID=a108650c
DTITLE=Various Artist - Os Monarcas
DYEAR=1900
DGENRE=Gaúcha
TTITLE0=Os Serranos - Bolicho do Tio Candinho
TTITLE1=Os Serranos - Saudade do Galpão
TTITLE2=Garotos de Ouro - Vanerão do Nego Nereu
TTITLE3=João Campeiro - O Velho Queria Mas Não Podia
TTITLE4=Gaúcho da Franteira - Na Cumbuca da Maruca
TTITLE5=Os Monarcas - Dia de Festa
TTITLE6=Gaúcho da Fronteira - Na Minha Terra Tem Quem Queira
TTITLE7=Os Mirins - Tempo de Guri
TTITLE8=Leonir and Os Milongueiros - Ronco do Bugio Macho
TTITLE9=Garotos de Ouro - Bugio Deitado
TTITLE10=Grupo Minuano - Surungo de Candeeiro
TTITLE11=Berenice Azambuja - É Disso Que O Velho Gosta
EXTD=
EXTT0=
EXTT1=
EXTT2=
EXTT3=
EXTT4=
EXTT5=
EXTT6=
EXTT7=
EXTT8=
EXTT9=
EXTT10=
EXTT11=
PLAYORDER=
